<svg xmlns="http://www.w3.org/2000/svg" viewBox="0 0 90 60" width="180" height="120" preserveAspectRatio="none" stroke-linejoin="round" stroke-linecap="round">
  <polygon points="0,0 90,0 90,30 75,30 71.12,30.51 67.5,32.01 64.39,34.39 62.01,37.5 60.51,41.12 60,45 60,60 30,60 30,45 29.49,41.12 27.99,37.5 25.61,34.39 22.5,32.01 18.88,30.51 15,30 0,30" fill="#c9ced3" stroke="#2b2b2b" stroke-width="1.5"/>
  <polyline points="4,9 86,9" fill="none" stroke="#8a857c" stroke-width="0.75" stroke-dasharray="4 3"/>
  <polyline points="4,15 86,15" fill="none" stroke="#8a857c" stroke-width="0.75" stroke-dasharray="4 3"/>
  <polyline points="4,21 86,21" fill="none" stroke="#8a857c" stroke-width="0.75" stroke-dasharray="4 3"/>
  <polyline points="39,34 39,56" fill="none" stroke="#8a857c" stroke-width="0.75" stroke-dasharray="4 3"/>
  <polyline points="45,34 45,56" fill="none" stroke="#8a857c" stroke-width="0.75" stroke-dasharray="4 3"/>
  <polyline points="51,34 51,56" fill="none" stroke="#8a857c" stroke-width="0.75" stroke-dasharray="4 3"/>
  <polygon points="0,28.5 15,28.5 19.27,29.06 23.25,30.71 26.67,33.33 29.29,36.75 30.94,40.73 31.5,45 31.5,60 30,60 30,45 29.49,41.12 27.99,37.5 25.61,34.39 22.5,32.01 18.88,30.51 15,30 0,30" fill="#c9ced3" stroke="#2b2b2b" stroke-width="1.5"/>
  <polygon points="90,30 75,30 71.12,30.51 67.5,32.01 64.39,34.39 62.01,37.5 60.51,41.12 60,45 60,60 58.5,60 58.5,45 59.06,40.73 60.71,36.75 63.33,33.33 66.75,30.71 70.73,29.06 75,28.5 90,28.5" fill="#c9ced3" stroke="#2b2b2b" stroke-width="1.5"/>
  <polygon points="0,0 90,0 90,1.5 0,1.5" fill="#c9ced3" stroke="#2b2b2b" stroke-width="1.5"/>
</svg>
