<svg xmlns="http://www.w3.org/2000/svg" viewBox="0 0 23 33" width="46" height="66" preserveAspectRatio="none" stroke-linejoin="round" stroke-linecap="round">
  <polygon points="0,0 5.88,0.29 11.71,1.15 17.42,2.58 22.96,4.57 11.48,32.28 8.71,31.29 5.85,30.58 2.94,30.14 0,30" fill="#c9ced3" stroke="#2b2b2b" stroke-width="1"/>
  <polyline points="0,9 0.83,9.01 1.67,9.03 2.5,9.06 3.34,9.11 4.17,9.17 5,9.25 5.83,9.33 6.66,9.44 7.48,9.55 8.31,9.68 9.13,9.82 9.95,9.98 10.77,10.15 11.58,10.33 12.39,10.53 13.2,10.74 14,10.96 14.8,11.2 15.6,11.44 16.39,11.71 17.18,11.98 17.96,12.27 18.74,12.57 19.52,12.88" fill="none" stroke="#8a857c" stroke-width="0.5" stroke-dasharray="4 3"/>
  <polyline points="0,15 0.74,15.01 1.47,15.02 2.21,15.05 2.94,15.1 3.68,15.15 4.41,15.22 5.14,15.29 5.87,15.38 6.6,15.49 7.33,15.6 8.06,15.73 8.78,15.86 9.5,16.01 10.22,16.18 10.93,16.35 11.65,16.53 12.36,16.73 13.06,16.94 13.77,17.16 14.46,17.39 15.16,17.63 15.85,17.88 16.54,18.15 17.22,18.43" fill="none" stroke="#8a857c" stroke-width="0.5" stroke-dasharray="4 3"/>
  <polyline points="0,21 0.64,21.01 1.28,21.02 1.91,21.05 2.55,21.08 3.19,21.13 3.82,21.19 4.46,21.26 5.09,21.33 5.72,21.42 6.35,21.52 6.98,21.63 7.61,21.75 8.23,21.88 8.86,22.02 9.48,22.17 10.09,22.33 10.71,22.5 11.32,22.68 11.93,22.87 12.54,23.07 13.14,23.28 13.74,23.5 14.33,23.73 14.92,23.97" fill="none" stroke="#8a857c" stroke-width="0.5" stroke-dasharray="4 3"/>
  <polygon points="0,0 5.88,0.29 11.71,1.15 17.42,2.58 22.96,4.57 22.39,5.95 16.98,4.02 11.41,2.62 5.73,1.78 0,1.5" fill="#c9ced3" stroke="#2b2b2b" stroke-width="1"/>
  <polygon points="0,28.5 3.09,28.65 6.15,29.11 9.14,29.86 12.05,30.9 11.48,32.28 8.71,31.29 5.85,30.58 2.94,30.14 0,30" fill="#c9ced3" stroke="#2b2b2b" stroke-width="1"/>
</svg>
