<svg xmlns="http://www.w3.org/2000/svg" viewBox="0 0 55 70" width="110" height="140" preserveAspectRatio="none" stroke-linejoin="round" stroke-linecap="round">
  <rect x="0" y="0" width="3" height="3" rx="0" fill="#c9ced3" stroke="#2b2b2b" stroke-width="1.5"/>
  <rect x="52" y="0" width="3" height="3" rx="0" fill="#c9ced3" stroke="#2b2b2b" stroke-width="1.5"/>
  <rect x="0" y="67" width="3" height="3" rx="0" fill="#c9ced3" stroke="#2b2b2b" stroke-width="1.5"/>
  <rect x="52" y="67" width="3" height="3" rx="0" fill="#c9ced3" stroke="#2b2b2b" stroke-width="1.5"/>
  <rect x="12.75" y="20.75" width="29.5" height="30.5" rx="3" fill="#f7f5f1" stroke="#2b2b2b" stroke-width="1.5"/>
  <rect x="7" y="53" width="41" height="13" rx="3" fill="#f7f5f1" stroke="#2b2b2b" stroke-width="1.5"/>
  <rect x="9" y="20" width="3" height="32" rx="0" fill="#e4dfd6" stroke="#8a857c" stroke-width="0.75"/>
  <rect x="43" y="20" width="3" height="32" rx="0" fill="#e4dfd6" stroke="#8a857c" stroke-width="0.75"/>
  <rect x="12" y="13" width="31" height="7" rx="2" fill="#e4dfd6" stroke="#2b2b2b" stroke-width="1.5"/>
  <polyline points="9,20 1.5,1.5" fill="none" stroke="#2b2b2b" stroke-width="0.75"/>
  <polyline points="46,20 53.5,1.5" fill="none" stroke="#2b2b2b" stroke-width="0.75"/>
  <polyline points="9,52 1.5,68.5" fill="none" stroke="#2b2b2b" stroke-width="0.75"/>
  <polyline points="46,52 53.5,68.5" fill="none" stroke="#2b2b2b" stroke-width="0.75"/>
</svg>
